<svg width="31" height="64" viewBox="0 0 31 64" fill="none" xmlns="http://www.w3.org/2000/svg">
<g clip-path="url(#clip0_1_2065)">
<path d="M21.2758 7.13325C18.5779 3.94632 16.2546 0.709589 15.78 0.0373468C15.73 -0.0124489 15.6551 -0.0124489 15.6051 0.0373468C15.1305 0.709589 12.8072 3.94632 10.1093 7.13325C-13.0481 36.5376 13.7565 56.3813 13.7565 56.3813L13.9813 56.5306C14.1812 59.5932 14.6808 64 14.6808 64H15.68H16.6793C16.6793 64 17.1789 59.618 17.3788 56.5306L17.6036 56.3565C17.6286 56.3565 44.4332 36.5376 21.2758 7.13325ZM15.68 55.933C15.68 55.933 14.481 54.9123 14.1562 54.3893V54.3397L15.6051 22.3209C15.6051 22.2213 15.755 22.2213 15.755 22.3209L17.2039 54.3397V54.3893C16.8791 54.9123 15.68 55.933 15.68 55.933Z" fill="#00684A"/>
</g>
<defs>
<clipPath id="clip0_1_2065">
<rect width="29.7674" height="64" fill="white" transform="translate(0.684448)"/>
</clipPath>
</defs>
</svg>
