<svg width="71" height="64" viewBox="0 0 71 64" fill="none" xmlns="http://www.w3.org/2000/svg">
<g clip-path="url(#clip0_1_2044)">
<path d="M35.5001 38.7725C39.1724 38.7725 42.1494 35.7404 42.1494 32C42.1494 28.2597 39.1724 25.2275 35.5001 25.2275C31.8277 25.2275 28.8507 28.2597 28.8507 32C28.8507 35.7404 31.8277 38.7725 35.5001 38.7725Z" fill="#087EA4"/>
<path d="M35.5001 47.238C53.8617 47.238 68.7468 40.4157 68.7468 31.9999C68.7468 23.5842 53.8617 16.7618 35.5001 16.7618C17.1384 16.7618 2.2533 23.5842 2.2533 31.9999C2.2533 40.4157 17.1384 47.238 35.5001 47.238Z" stroke="#087EA4" stroke-width="3"/>
<path d="M22.5434 39.619C31.7242 55.8152 44.9677 65.5336 52.1234 61.3257C59.2792 57.1178 57.6375 40.5771 48.4567 24.3809C39.2759 8.18475 26.0324 -1.53366 18.8767 2.67422C11.7209 6.88211 13.3626 23.4228 22.5434 39.619Z" stroke="#087EA4" stroke-width="3"/>
<path d="M22.5434 24.3808C13.3626 40.577 11.7209 57.1177 18.8767 61.3256C26.0324 65.5335 39.2759 55.8151 48.4567 39.6189C57.6375 23.4228 59.2792 6.88205 52.1234 2.67416C44.9677 -1.53372 31.7243 8.18469 22.5434 24.3808Z" stroke="#087EA4" stroke-width="3"/>
</g>
<defs>
<clipPath id="clip0_1_2044">
<rect width="69.8182" height="64" fill="white" transform="translate(0.590942)"/>
</clipPath>
</defs>
</svg>
